<?xml version="1.0" standalone="no"?>
<!DOCTYPE svg PUBLIC "-//W3C//DTD SVG 20010904//EN"
 "http://www.w3.org/TR/2001/REC-SVG-20010904/DTD/svg10.dtd">
<svg version="1.0" xmlns="http://www.w3.org/2000/svg"
 width="722.000000pt" height="1078.000000pt" viewBox="0 0 722.000000 1078.000000"
 preserveAspectRatio="xMidYMid meet">
<metadata>
Created by potrace 1.16, written by Peter Selinger 2001-2019
</metadata>
<g transform="translate(0.000000,1078.000000) scale(0.100000,-0.100000)"
fill="#322153" stroke="none">
<path d="M3295 10773 c-1493 -128 -2746 -1100 -3155 -2445 -90 -296 -132 -585
-133 -908 -1 -432 77 -833 283 -1450 191 -575 418 -1109 791 -1860 491 -989
1065 -1994 1809 -3165 232 -364 617 -945 627 -945 15 1 408 514 676 883 1027
1410 1874 2830 2382 3992 346 791 546 1465 627 2105 18 142 18 661 0 795 -99
747 -423 1403 -957 1940 -589 591 -1372 958 -2240 1050 -127 13 -587 19 -710
8z"/>
</g>
</svg>
